<svg width="1440" height="4643" viewBox="0 0 1440 4643" fill="none" xmlns="http://www.w3.org/2000/svg">
<path fill-rule="evenodd" clip-rule="evenodd" d="M-35.5746 630.75C-7.35796 592.32 23.3455 551.071 47.4392 520.178C98.6315 454.529 148.564 410.818 162.612 399C139.778 407.437 44.8106 446.037 -16.9235 524.891C-28.9703 540.28 -39.6865 556.724 -49.2248 573.408L-47.8123 573.189L-47.8007 573.265C-47.6001 574.588 -44.8331 592.835 -41.0663 609.135C-38.5958 619.822 -36.6598 626.96 -35.5746 630.75ZM38.4566 658.696C0.623665 693.112 -48.2191 722.456 -111.21 739.921C-99.671 723.826 -15.2278 606.285 41.3442 532.891C46.0276 530.892 66.1367 522.613 92.1738 515.972C118.746 509.2 136.219 507.715 139.712 507.475C124.717 546.162 101.814 589.868 66.8409 629.79L7.03196 635.961C7.03196 635.961 28.1182 651.558 38.4566 658.696ZM-113 736.146C-108.706 717.521 -90.2711 644.463 -51.0253 574.975C-50.2079 580.195 -47.7176 595.489 -44.5407 609.249C-41.4782 622.54 -39.2113 630.408 -38.383 633.198C-73.5309 681.145 -104.314 724.024 -113 736.146ZM91.2763 513.23C70.384 518.547 53.2669 524.919 44.7548 528.32C46.4212 526.169 48.0712 524.051 49.6774 521.992C104.514 451.832 157.854 406.873 167 399.361C165.918 409.958 160.493 453.094 140.191 506.007L140.125 504.604C140.124 504.604 140.116 504.604 140.101 504.605C139.341 504.649 120.744 505.724 91.2763 513.23Z" fill="url(#paint0_radial)"/>
<g filter="url(#filter0_d)">
<path fill-rule="evenodd" clip-rule="evenodd" d="M-94 2682.82V1116.72C-94 1116.72 -27.0938 711.172 264.062 711.172C555.219 711.172 458.805 883.961 685.452 861.602C912.099 839.242 907.678 688.543 1052.84 565.578C1197.99 442.613 1464.9 435 1464.9 435V4245.58H-94V2682.82Z" fill="white"/>
</g>
<path fill-rule="evenodd" clip-rule="evenodd" d="M51.3896 344.102C123.115 399.02 14.2869 439.397 13.0756 515.591C11.8643 591.786 -163.283 572.453 -163.283 572.453C-163.283 572.453 -124.763 681.214 -138.389 696.347C-152.015 711.481 -206.128 734.641 -272.473 674.904C-338.817 615.167 -267.948 601.559 -267.948 601.559C-267.948 601.559 -180.966 498.979 -180.22 457.57C-179.806 434.641 -268.691 -94.6093 -36.8582 67.7202C194.975 230.05 -20.3357 289.185 51.3896 344.102Z" fill="url(#paint1_radial)"/>
<mask id="mask0" mask-type="alpha" maskUnits="userSpaceOnUse" x="-516" y="0" width="741" height="753">
<path fill-rule="evenodd" clip-rule="evenodd" d="M51.3896 344.102C123.115 399.02 14.2869 439.397 13.0756 515.591C11.8643 591.786 -163.283 572.453 -163.283 572.453C-163.283 572.453 -124.763 681.214 -138.389 696.347C-152.015 711.481 -206.128 734.641 -272.473 674.904C-338.817 615.167 -267.948 601.559 -267.948 601.559C-267.948 601.559 -180.966 498.979 -180.22 457.57C-179.806 434.641 -268.691 -94.6093 -36.8582 67.7202C194.975 230.05 -20.3357 289.185 51.3896 344.102Z" fill="white"/>
</mask>
<g mask="url(#mask0)">
<path opacity="0.616797" fill-rule="evenodd" clip-rule="evenodd" d="M44.918 545.775C-73.9292 562.259 -201.107 519.414 -55.4762 399.936C90.1548 280.458 -1.97554 225.985 53.7016 134.483C109.379 42.9811 -26.2139 -14.6774 144.403 71.0112C315.021 156.7 163.765 529.292 44.918 545.775Z" fill="url(#paint2_radial)"/>
</g>
<path fill-rule="evenodd" clip-rule="evenodd" d="M-119 4233.23C-119 4233.23 -99.4562 3903.86 114.836 3903.86C386.14 3903.86 409.994 4060.01 621.479 3967.61C822.926 3879.59 741.324 3601.39 1041.37 3548.75C1056.32 3546.13 1072.22 3544.07 1089.15 3542.62C1445.81 3512.05 1439.9 3277 1439.9 3277V4642.91H-119V4233.23Z" fill="#F5F5F5"/>
<path fill-rule="evenodd" clip-rule="evenodd" d="M1301.79 4608.02C1247.03 4550.04 1220.63 4650.41 1153.3 4659.12C1085.96 4667.83 1118.1 4820.92 1118.1 4820.92C1118.1 4820.92 1018.53 4797.73 1006.31 4811.3C994.084 4824.88 978.228 4875.1 1036.79 4927.83C1095.36 4980.56 1101.32 4916.47 1101.32 4916.47C1101.32 4916.47 1184.65 4829.2 1221.24 4824.39C1241.49 4821.72 1717.55 4847.34 1553.98 4658.42C1390.42 4469.5 1356.55 4666 1301.79 4608.02Z" fill="url(#paint3_radial)"/>
<mask id="mask1" mask-type="alpha" maskUnits="userSpaceOnUse" x="960" y="4450" width="660" height="672">
<path fill-rule="evenodd" clip-rule="evenodd" d="M1301.79 4608.02C1247.03 4550.04 1220.63 4650.41 1153.3 4659.12C1085.96 4667.83 1118.1 4820.92 1118.1 4820.92C1118.1 4820.92 1018.53 4797.73 1006.31 4811.3C994.084 4824.88 978.228 4875.1 1036.79 4927.83C1095.36 4980.56 1101.32 4916.47 1101.32 4916.47C1101.32 4916.47 1184.65 4829.2 1221.24 4824.39C1241.49 4821.72 1717.55 4847.34 1553.98 4658.42C1390.42 4469.5 1356.55 4666 1301.79 4608.02Z" fill="white"/>
</mask>
<g mask="url(#mask1)">
</g>
<defs>
<filter id="filter0_d" x="-146" y="365" width="1662.9" height="3914.58" filterUnits="userSpaceOnUse" color-interpolation-filters="sRGB">
<feFlood flood-opacity="0" result="BackgroundImageFix"/>
<feColorMatrix in="SourceAlpha" type="matrix" values="0 0 0 0 0 0 0 0 0 0 0 0 0 0 0 0 0 0 127 0"/>
<feOffset dy="-18"/>
<feGaussianBlur stdDeviation="26"/>
<feColorMatrix type="matrix" values="0 0 0 0 0.960784 0 0 0 0 0.960784 0 0 0 0 0.960784 0 0 0 0.584664 0"/>
<feBlend mode="normal" in2="BackgroundImageFix" result="effect1_dropShadow"/>
<feBlend mode="normal" in="SourceGraphic" in2="effect1_dropShadow" result="shape"/>
</filter>
<radialGradient id="paint0_radial" cx="0" cy="0" r="1" gradientUnits="userSpaceOnUse" gradientTransform="translate(110.953 369.891) rotate(133.477) scale(254.052 256.316)">
<stop stop-color="#F7F7F7"/>
<stop offset="0.226957" stop-color="#C3DEA5"/>
<stop offset="0.681333" stop-color="#9EC872"/>
<stop offset="1" stop-color="#7CB342"/>
</radialGradient>
<radialGradient id="paint1_radial" cx="0" cy="0" r="1" gradientUnits="userSpaceOnUse" gradientTransform="translate(-111.238 421.957) rotate(-43.9874) scale(251.56 183.907)">
<stop stop-color="#43A047"/>
<stop offset="0.201704" stop-color="#53AA57"/>
<stop offset="1" stop-color="#81C784"/>
</radialGradient>
<radialGradient id="paint2_radial" cx="0" cy="0" r="1" gradientUnits="userSpaceOnUse" gradientTransform="translate(-22.1021 372.554) rotate(29.998) scale(258.217 335.281)">
<stop stop-color="#43A047"/>
<stop offset="0.755628" stop-color="#6CBA6F" stop-opacity="0.461367"/>
<stop offset="1" stop-color="#5CB060" stop-opacity="0.805208"/>
<stop offset="1" stop-color="#81C784" stop-opacity="0.01"/>
</radialGradient>
<radialGradient id="paint3_radial" cx="0" cy="0" r="1" gradientUnits="userSpaceOnUse" gradientTransform="translate(1246.84 4759.77) rotate(-51.9482) scale(225.676 162.353)">
<stop stop-color="#43A047"/>
<stop offset="0.201704" stop-color="#53AA57"/>
<stop offset="1" stop-color="#81C784"/>
</radialGradient>
</defs>
</svg>
