<svg width="1440" height="4643" fill="none" xmlns="http://www.w3.org/2000/svg"><path fill-rule="evenodd" clip-rule="evenodd" d="M-35.575 630.75c28.217-38.43 58.92-79.679 83.014-110.572C98.632 454.529 148.564 410.818 162.612 399c-22.834 8.437-117.801 47.037-179.535 125.891-12.047 15.389-22.764 31.833-32.302 48.517l1.413-.219.011.076c.2 1.323 2.968 19.57 6.735 35.87 2.47 10.687 4.406 17.825 5.491 21.615zm74.032 27.946C.624 693.112-48.22 722.456-111.21 739.921c11.539-16.095 95.982-133.636 152.554-207.03 4.684-1.999 24.793-10.278 50.83-16.919 26.572-6.772 44.045-8.257 47.538-8.497-14.995 38.687-37.898 82.393-72.871 122.315l-59.809 6.171s21.086 15.597 31.425 22.735zM-113 736.146c4.294-18.625 22.729-91.683 61.975-161.171.817 5.22 3.307 20.514 6.484 34.274 3.063 13.291 5.33 21.159 6.158 23.949A12495.922 12495.922 0 0 0-113 736.146zM91.276 513.23c-20.892 5.317-38.01 11.689-46.521 15.09a2387.65 2387.65 0 0 1 4.922-6.328C104.514 451.832 157.854 406.873 167 399.361c-1.082 10.597-6.507 53.733-26.809 106.646l-.066-1.403-.024.001c-.76.044-19.357 1.119-48.825 8.625z" fill="url(#paint0_radial)"/><path fill-rule="evenodd" clip-rule="evenodd" d="M-94 2682.82v-1566.1s66.906-405.548 358.062-405.548c291.157 0 194.743 172.789 421.39 150.43 226.647-22.36 222.226-173.059 367.388-296.024C1197.99 442.613 1464.9 435 1464.9 435v3810.58H-94V2682.82z" fill="#fff" filter="url(#filter0_d)"/><path fill-rule="evenodd" clip-rule="evenodd" d="M51.39 344.102c71.725 54.918-37.103 95.295-38.314 171.489-1.212 76.195-176.359 56.862-176.359 56.862s38.52 108.761 24.894 123.894c-13.626 15.134-67.739 38.294-134.084-21.443-66.344-59.737 4.525-73.345 4.525-73.345s86.982-102.58 87.728-143.989c.414-22.929-88.471-552.18 143.362-389.85C194.975 230.05-20.336 289.185 51.39 344.102z" fill="url(#paint1_radial)"/><mask id="a" maskUnits="userSpaceOnUse" x="-516" y="0" width="741" height="753"><path fill-rule="evenodd" clip-rule="evenodd" d="M51.39 344.102c71.725 54.918-37.103 95.295-38.314 171.489-1.212 76.195-176.359 56.862-176.359 56.862s38.52 108.761 24.894 123.894c-13.626 15.134-67.739 38.294-134.084-21.443-66.344-59.737 4.525-73.345 4.525-73.345s86.982-102.58 87.728-143.989c.414-22.929-88.471-552.18 143.362-389.85C194.975 230.05-20.336 289.185 51.39 344.102z" fill="#fff"/></mask><g mask="url(#a)"><path opacity=".617" fill-rule="evenodd" clip-rule="evenodd" d="M44.918 545.775c-118.847 16.484-246.025-26.361-100.394-145.839 145.63-119.478 53.5-173.951 109.178-265.453 55.677-91.502-79.916-149.16 90.701-63.472 170.618 85.689 19.362 458.281-99.485 474.764z" fill="url(#paint2_radial)"/></g><path fill-rule="evenodd" clip-rule="evenodd" d="M-119 4233.23s19.544-329.37 233.836-329.37c271.304 0 295.158 156.15 506.643 63.75 201.447-88.02 119.845-366.22 419.891-418.86 14.95-2.62 30.85-4.68 47.78-6.13C1445.81 3512.05 1439.9 3277 1439.9 3277v1365.91H-119v-409.68z" fill="#F5F5F5"/><path fill-rule="evenodd" clip-rule="evenodd" d="M1301.79 4608.02c-54.76-57.98-81.16 42.39-148.49 51.1-67.34 8.71-35.2 161.8-35.2 161.8s-99.57-23.19-111.79-9.62c-12.226 13.58-28.082 63.8 30.48 116.53 58.57 52.73 64.53-11.36 64.53-11.36s83.33-87.27 119.92-92.08c20.25-2.67 496.31 22.95 332.74-165.97-163.56-188.92-197.43 7.58-252.19-50.4z" fill="url(#paint3_radial)"/><mask id="b" maskUnits="userSpaceOnUse" x="960" y="4450" width="660" height="672"><path fill-rule="evenodd" clip-rule="evenodd" d="M1301.79 4608.02c-54.76-57.98-81.16 42.39-148.49 51.1-67.34 8.71-35.2 161.8-35.2 161.8s-99.57-23.19-111.79-9.62c-12.226 13.58-28.082 63.8 30.48 116.53 58.57 52.73 64.53-11.36 64.53-11.36s83.33-87.27 119.92-92.08c20.25-2.67 496.31 22.95 332.74-165.97-163.56-188.92-197.43 7.58-252.19-50.4z" fill="#fff"/></mask><defs><filter id="filter0_d" x="-146" y="365" width="1662.9" height="3914.58" filterUnits="userSpaceOnUse" color-interpolation-filters="sRGB"><feFlood flood-opacity="0" result="BackgroundImageFix"/><feColorMatrix in="SourceAlpha" values="0 0 0 0 0 0 0 0 0 0 0 0 0 0 0 0 0 0 127 0"/><feOffset dy="-18"/><feGaussianBlur stdDeviation="26"/><feColorMatrix values="0 0 0 0 0.960784 0 0 0 0 0.960784 0 0 0 0 0.960784 0 0 0 0.584664 0"/><feBlend in2="BackgroundImageFix" result="effect1_dropShadow"/><feBlend in="SourceGraphic" in2="effect1_dropShadow" result="shape"/></filter><radialGradient id="paint0_radial" cx="0" cy="0" r="1" gradientUnits="userSpaceOnUse" gradientTransform="rotate(133.477 -24.026 208.793) scale(254.052 256.316)"><stop stop-color="#F7F7F7"/><stop offset=".227" stop-color="#C3DEA5"/><stop offset=".681" stop-color="#9EC872"/><stop offset="1" stop-color="#7CB342"/></radialGradient><radialGradient id="paint1_radial" cx="0" cy="0" r="1" gradientUnits="userSpaceOnUse" gradientTransform="rotate(-43.987 466.736 348.684) scale(251.56 183.907)"><stop stop-color="#43A047"/><stop offset=".202" stop-color="#53AA57"/><stop offset="1" stop-color="#81C784"/></radialGradient><radialGradient id="paint2_radial" cx="0" cy="0" r="1" gradientUnits="userSpaceOnUse" gradientTransform="matrix(223.62699 129.1007 -167.63036 290.36771 -22.102 372.554)"><stop stop-color="#43A047"/><stop offset=".756" stop-color="#6CBA6F" stop-opacity=".461"/><stop offset="1" stop-color="#5CB060" stop-opacity=".805"/><stop offset="1" stop-color="#81C784" stop-opacity=".01"/></radialGradient><radialGradient id="paint3_radial" cx="0" cy="0" r="1" gradientUnits="userSpaceOnUse" gradientTransform="rotate(-51.948 5508.51 1100.217) scale(225.676 162.353)"><stop stop-color="#43A047"/><stop offset=".202" stop-color="#53AA57"/><stop offset="1" stop-color="#81C784"/></radialGradient></defs></svg>