<svg width="81" height="34" fill="none" xmlns="http://www.w3.org/2000/svg"><path d="M25 33h-1v1h1v-1zm55 0v1h1v-1h-1zM25 1V0h-1v1h1zm55 0h1V0h-1v1zM25 34h55v-2H25v2zM24 1v32h2V1h-2zm56-1H25v2h55V0zm1 33V1h-2v32h2z" fill="#D1EAD3"/><path clip-rule="evenodd" d="M1 33h40v-7.226H1V33z" stroke="#D1EAD3" stroke-width="2"/><path fill-rule="evenodd" clip-rule="evenodd" d="M1 33h40v-7.226H1V33z" fill="#66BB6A" stroke="#D1EAD3" stroke-width="2"/><path clip-rule="evenodd" d="M9 24.742h39v-7.226H9v7.226z" stroke="#D1EAD3" stroke-width="2"/><path fill-rule="evenodd" clip-rule="evenodd" d="M9 24.742h39v-7.226H9v7.226z" fill="#66BB6A" stroke="#D1EAD3" stroke-width="2"/><path clip-rule="evenodd" d="M17 16.484h40V9.258H17v7.226z" stroke="#D1EAD3" stroke-width="2"/><path fill-rule="evenodd" clip-rule="evenodd" d="M17 16.484h40V9.258H17v7.226z" fill="#66BB6A" stroke="#D1EAD3" stroke-width="2"/><path clip-rule="evenodd" d="M25 8.226h39V1H25v7.226z" stroke="#D1EAD3" stroke-width="2"/><path fill-rule="evenodd" clip-rule="evenodd" d="M25 8.226h39V1H25v7.226z" fill="#66BB6A" stroke="#D1EAD3" stroke-width="2"/></svg>